<svg width="46" height="52" viewBox="0 0 46 52" fill="none" xmlns="http://www.w3.org/2000/svg">
<path fill-rule="evenodd" clip-rule="evenodd" d="M39.8538 12.7873C39.5156 10.6064 38.3669 8.63344 36.6372 7.2627C34.9076 5.89197 32.7243 5.22441 30.5239 5.39342C28.3234 5.56244 26.2678 6.55558 24.7677 8.17439C23.2677 9.79319 22.4338 11.9184 22.4326 14.1254L22.4714 14.9478C21.1898 15.4891 20.1348 16.4569 19.4853 17.6872C18.8359 18.9176 18.6319 20.3346 18.908 21.6982C19.1841 23.0617 19.9233 24.2878 21.0002 25.1686C22.0772 26.0493 23.4255 26.5305 24.8168 26.5305H38.4806C40.2021 26.5311 41.8624 25.8918 43.139 24.7368C44.4155 23.5818 45.2173 21.9935 45.3884 20.2805C45.5596 18.5675 45.088 16.852 44.0652 15.4673C43.0424 14.0825 41.5414 13.1274 39.8538 12.7873ZM38.4806 23.5826H24.8168C24.041 23.5781 23.2954 23.2812 22.7289 22.7512C22.1624 22.2212 21.8165 21.497 21.7603 20.7233C21.704 19.9495 21.9416 19.183 22.4256 18.5767C22.9096 17.9704 23.6044 17.5688 24.3713 17.4521C24.5769 17.423 24.7738 17.3503 24.9491 17.2391C25.1244 17.1279 25.2739 16.9806 25.3879 16.8071C25.5015 16.6333 25.5775 16.4375 25.6109 16.2325C25.6443 16.0275 25.6344 15.8178 25.5819 15.6169C25.3689 14.8172 25.3291 13.9814 25.465 13.1651C25.601 12.3488 25.9096 11.571 26.3702 10.8835C26.8309 10.1961 27.433 9.61488 28.1362 9.17878C28.8395 8.74267 29.6278 8.46171 30.4483 8.35466C31.2689 8.24761 32.1028 8.31695 32.8945 8.55804C33.6861 8.79912 34.4171 9.2064 35.0387 9.75266C35.6603 10.2989 36.1581 10.9716 36.4989 11.7256C36.8397 12.4797 37.0157 13.2979 37.0149 14.1254C37.0149 14.5175 37.1707 14.8936 37.448 15.1709C37.7253 15.4482 38.1014 15.6039 38.4935 15.6039C39.5523 15.6039 40.5677 16.0245 41.3164 16.7732C42.065 17.5219 42.4856 18.5373 42.4856 19.5961C42.4856 20.6548 42.065 21.6703 41.3164 22.4189C40.5677 23.1676 39.5523 23.5882 38.4935 23.5882L38.4806 23.5826Z" fill="white"/>
<path fill-rule="evenodd" clip-rule="evenodd" d="M37.4126 35.1452C36.3238 34.0559 34.9196 33.337 33.3993 33.0905C31.8789 32.844 30.3195 33.0825 28.9423 33.772L27.7539 34.3653C27.0103 34.7377 26.1762 34.8912 25.3488 34.8081C24.5213 34.725 23.7345 34.4087 23.0798 33.8959C18.5588 30.4606 15.2036 25.7182 13.4691 20.3115C13.2539 19.5594 13.2462 18.7632 13.4466 18.007C13.647 17.2509 14.0482 16.563 14.6076 16.0163C14.6712 15.9561 14.7288 15.8899 14.7795 15.8185C14.9328 15.6184 15.1042 15.4328 15.2914 15.2641C16.3994 14.1814 17.1366 12.776 17.3975 11.2489C17.6585 9.72191 17.4297 8.15148 16.7441 6.7623L15.4208 4.0861C14.9717 3.1775 14.3392 2.3718 13.5632 1.71979C12.7873 1.06778 11.8846 0.583607 10.9122 0.297791C9.93981 0.0119752 8.91874 -0.0692834 7.91338 0.0591381C6.90801 0.18756 5.94016 0.522876 5.07083 1.04395L3.56454 1.94587C2.3711 2.6616 1.40575 3.70187 0.781052 4.94537C0.156356 6.18887 -0.101933 7.58435 0.0363062 8.96906V9.00418C1.16186 18.0253 6.3886 40.4847 31.04 51.1433C32.374 51.7165 33.8486 51.879 35.2754 51.61C36.7021 51.341 38.0164 50.6528 39.0501 49.6333C39.4808 49.2637 39.8985 48.8386 40.3235 48.4154C41.6997 47.0384 42.4727 45.1714 42.4727 43.2247C42.4727 41.278 41.6997 39.4109 40.3235 38.034L37.4126 35.1452ZM38.2406 46.3509C37.8543 46.7372 37.4718 47.1198 37.0799 47.4599C37.0533 47.4818 37.028 47.5052 37.0042 47.5301C36.3892 48.146 35.6036 48.5633 34.7489 48.7281C33.8942 48.8928 33.0098 48.7974 32.2099 48.4542C8.95391 38.3962 4.03213 17.2047 2.96572 8.67335C2.88502 7.84656 3.04051 7.01384 3.41411 6.27187C3.78771 5.52991 4.3641 4.90913 5.07637 4.48161L6.58266 3.57599C7.10311 3.26337 7.68272 3.06205 8.28491 2.98477C8.88709 2.90749 9.49876 2.95591 10.0813 3.12699C10.6638 3.29806 11.2045 3.58807 11.6693 3.9787C12.1341 4.36932 12.5128 4.85208 12.7815 5.39648L14.1012 8.07268C14.512 8.90361 14.6492 9.84324 14.4931 10.7569C14.3371 11.6706 13.8958 12.5115 13.2325 13.159C12.9573 13.4187 12.7004 13.6972 12.4637 13.9925C11.553 14.9126 10.9043 16.0589 10.5843 17.3132C10.2643 18.5676 10.2846 19.8846 10.6432 21.1284C12.5565 27.1228 16.2641 32.3852 21.2648 36.2043C22.358 37.0614 23.6723 37.5902 25.0545 37.7289C26.4367 37.8676 27.8299 37.6107 29.0717 36.9879C29.4616 36.8031 29.8608 36.5961 30.2601 36.3946C31.0845 35.9823 32.0177 35.8398 32.9276 35.9874C33.8375 36.1351 34.6779 36.5653 35.3297 37.2171L38.2332 40.1409C39.0562 40.9647 39.5185 42.0815 39.5185 43.2459C39.5185 44.4104 39.0562 45.5272 38.2332 46.3509H38.2406Z" fill="white"/>
</svg>
