<svg width="62" height="65" viewBox="0 0 62 65" fill="none" xmlns="http://www.w3.org/2000/svg">
<path d="M14.7635 20.772C14.7635 20.2833 15.1572 19.8896 15.6459 19.8896H44.8607C45.3495 19.8896 45.7431 20.2833 45.7431 20.772C45.7431 21.2607 45.3495 21.6544 44.8607 21.6544H15.6459C15.1572 21.6544 14.7635 21.2607 14.7635 20.772ZM15.7545 14.6154H30.2465C30.7353 14.6154 31.129 14.2217 31.129 13.733C31.129 13.2443 30.7353 12.8506 30.2465 12.8506H15.7545C15.2658 12.8506 14.8721 13.2443 14.8721 13.733C14.8721 14.2217 15.2658 14.6154 15.7545 14.6154ZM61.3483 61.9877C61.0836 62.9923 60.4388 63.8272 59.5428 64.343C58.9387 64.696 58.2735 64.8589 57.615 64.8589C56.2778 64.8589 54.9746 64.1665 54.2551 62.9244L51.9608 58.9535H45.2816V63.9765C45.2816 64.4652 44.8879 64.8589 44.3992 64.8589H0.882417C0.393694 64.8589 0 64.4652 0 63.9765V7.02665C0 6.53793 0.393694 6.14423 0.882417 6.14423H7.61594V1.50815C7.61594 1.01943 8.00963 0.625732 8.49835 0.625732H42.0506C42.0506 0.625732 42.0845 0.63252 42.1049 0.639308C42.1727 0.639308 42.2406 0.659672 42.3017 0.673247C42.3289 0.680035 42.3628 0.686823 42.39 0.700398C42.4782 0.741125 42.5664 0.78864 42.6411 0.856518L52.5921 9.8979C52.6531 9.9522 52.7007 10.0133 52.7414 10.0812C52.755 10.1015 52.7618 10.1151 52.7753 10.1355C52.8093 10.1966 52.8296 10.2577 52.85 10.3187C52.85 10.3323 52.8568 10.3391 52.8636 10.3527C52.8771 10.4138 52.8839 10.4817 52.8839 10.5495V25.5981C57.8119 29.0531 60.3777 35.3047 58.8504 41.4884C58.0766 44.638 56.3389 47.3056 54.0447 49.2741L55.5244 51.8331L55.7077 51.7313C56.1285 51.4869 56.6715 51.6294 56.9091 52.0571L60.9547 59.0621C61.4705 59.9513 61.6063 60.9966 61.3416 61.9944L61.3483 61.9877ZM54.0039 52.7155L52.6599 50.3941L50.9019 51.4122L52.2459 53.7337L54.0039 52.7155ZM47.4469 25.0347C46.388 24.77 45.3155 24.6411 44.2498 24.6411C41.8605 24.6411 39.5119 25.2927 37.4213 26.5552C34.3939 28.3879 32.2557 31.2863 31.4073 34.7278C29.656 41.821 34.007 49.0161 41.1003 50.7674C48.2003 52.5186 55.3954 48.1676 57.1467 41.0744C58.8979 33.9811 54.547 26.786 47.4469 25.0347ZM42.9398 9.6739H49.7276L47.3994 7.56289L42.933 3.51056V9.68069L42.9398 9.6739ZM43.5167 58.9603H8.49835C8.00963 58.9603 7.61594 58.5666 7.61594 58.0779V7.90907H1.76483V63.0941H43.5099V58.9535L43.5167 58.9603ZM50.9426 57.1954L50.2095 55.9261C50.0941 55.7225 50.0602 55.4849 50.1213 55.2541C50.1824 55.0301 50.3317 54.8333 50.5353 54.7179L50.7186 54.6093L49.2457 52.0571C47.6709 52.6137 45.9943 52.9123 44.277 52.9123C43.0891 52.9123 41.8877 52.7698 40.6862 52.4711C35.5614 51.2086 31.6991 47.4278 30.0904 42.7713H15.6527C15.164 42.7713 14.7703 42.3776 14.7703 41.8889C14.7703 41.4002 15.164 41.0065 15.6527 41.0065H29.5949C29.2284 39.3095 29.1605 37.5243 29.4252 35.7324H15.6527C15.164 35.7324 14.7703 35.3387 14.7703 34.8499C14.7703 34.3612 15.164 33.9675 15.6527 33.9675H29.7985C30.3212 32.0262 31.2172 30.241 32.4186 28.6934H15.6459C15.1572 28.6934 14.7635 28.2997 14.7635 27.811C14.7635 27.3222 15.1572 26.9285 15.6459 26.9285H34.0206C34.774 26.2226 35.6021 25.5913 36.5117 25.0415C39.9463 22.9645 43.9783 22.3536 47.8745 23.3106C49.0284 23.5957 50.1145 24.0098 51.1327 24.5324V11.4319H42.0641C41.5754 11.4319 41.1817 11.0383 41.1817 10.5495V2.39057H9.38077V57.1887H50.9426V57.1954ZM59.4342 59.9377L55.8298 53.6929L55.6534 53.7948L52.3681 55.6886L52.1848 55.7904L55.7891 62.0284C56.3729 63.0398 57.6693 63.3859 58.6672 62.8022C59.1559 62.5171 59.5021 62.0623 59.6514 61.5125C59.7939 60.9695 59.7261 60.3993 59.441 59.9174L59.4342 59.9377ZM47.0057 26.8267C49.9652 27.553 52.4631 29.3925 54.0379 31.9991C55.6126 34.6056 56.081 37.6737 55.3479 40.6332C54.065 45.8258 49.395 49.3148 44.2702 49.3148C43.3674 49.3148 42.4578 49.2062 41.5415 48.9822C38.582 48.2559 36.0841 46.4164 34.5093 43.8099C32.9345 41.2033 32.4662 38.1352 33.1992 35.1758C33.9255 32.2231 35.7583 29.7251 38.3648 28.1436C40.9713 26.562 44.0394 26.1004 46.9989 26.8267H47.0057ZM46.5848 28.5373C45.811 28.3472 45.0304 28.2522 44.2566 28.2522C42.5189 28.2522 40.8084 28.7273 39.2811 29.6505C37.0751 30.9809 35.5275 33.0919 34.9166 35.5898C34.2989 38.0945 34.6926 40.6807 36.023 42.8867C37.3534 45.0928 39.4644 46.6472 41.9691 47.2581C47.1346 48.5274 52.3613 45.3643 53.6374 40.1987C54.2551 37.7008 53.8614 35.1079 52.531 32.9018C51.2006 30.6958 49.0895 29.1414 46.5848 28.5305V28.5373ZM40.0549 37.3614C39.7088 37.0153 39.1522 37.0153 38.806 37.3614C38.4598 37.7076 38.4598 38.2642 38.806 38.6104L42.0981 41.9025C42.2678 42.0722 42.4986 42.1604 42.7226 42.1604C42.9466 42.1604 43.1706 42.0722 43.347 41.9025L49.9448 35.3183C50.291 34.9721 50.291 34.4155 49.9448 34.0693C49.6054 33.7232 49.042 33.7232 48.6958 34.0693L42.7226 40.029L40.0482 37.3614H40.0549Z" fill="white"/>
</svg>
