<svg width="75" height="64" viewBox="0 0 75 64" fill="none" xmlns="http://www.w3.org/2000/svg">
<path d="M28.718 58.0612C28.718 59.6478 30.0031 60.9329 31.5897 60.9329H68.9228C70.5094 60.9329 71.7945 59.6478 71.7945 58.0612V6.36928C71.7945 4.78262 70.5094 3.4975 68.9228 3.4975H31.5897C30.0031 3.4975 28.718 4.78262 28.718 6.36928V16.6H25.8462V6.36928C25.8462 3.21033 28.4308 0.625732 31.5897 0.625732H68.9228C72.0817 0.625732 74.6663 3.21033 74.6663 6.36928V58.0612C74.6663 61.2201 72.0817 63.8047 68.9228 63.8047H31.5897C28.4308 63.8047 25.8462 61.2201 25.8462 58.0612V47.8305H28.718V58.0612Z" fill="white"/>
<path d="M30.8716 10.6769C30.8716 9.88712 31.5177 9.24097 32.3075 9.24097H68.2046C68.9943 9.24097 69.6405 9.88712 69.6405 10.6769C69.6405 11.4666 68.9943 12.1127 68.2046 12.1127H32.3075C31.5177 12.1127 30.8716 11.4666 30.8716 10.6769Z" fill="white"/>
<path d="M68.2047 19.2922H43.0767V16.4204H68.2047C68.9944 16.4204 69.6405 17.0666 69.6405 17.8563C69.6405 18.646 68.9944 19.2922 68.2047 19.2922Z" fill="white"/>
<path d="M68.2049 26.4716H47.3989V23.5999H68.2049C68.9946 23.5999 69.6408 24.246 69.6408 25.0357C69.6408 25.8255 68.9946 26.4716 68.2049 26.4716Z" fill="white"/>
<path d="M68.2046 33.6511H49.5381V30.7793H68.2046C68.9943 30.7793 69.6405 31.4254 69.6405 32.2152C69.6405 33.0049 68.9943 33.6511 68.2046 33.6511Z" fill="white"/>
<path d="M68.2049 40.8305H47.3989V37.9587H68.2049C68.9946 37.9587 69.6408 38.6049 69.6408 39.3946C69.6408 40.1844 68.9946 40.8305 68.2049 40.8305Z" fill="white"/>
<path d="M68.2047 48.01H43.0767V45.1382H68.2047C68.9944 45.1382 69.6405 45.7843 69.6405 46.5741C69.6405 47.3638 68.9944 48.01 68.2047 48.01Z" fill="white"/>
<path d="M68.2046 55.1894H32.3075C31.5177 55.1894 30.8716 54.5432 30.8716 53.7535C30.8716 52.9638 31.5177 52.3176 32.3075 52.3176H68.2046C68.9943 52.3176 69.6405 52.9638 69.6405 53.7535C69.6405 54.5432 68.9943 55.1894 68.2046 55.1894Z" fill="white"/>
<path d="M5.74354 26.4717H0V37.9588H5.74354V26.4717Z" fill="white"/>
<path d="M7.17969 37.9588L22.9744 47.292V17.1384L7.17969 26.5578V37.9588Z" fill="white"/>
<path d="M26.6276 23.831C25.9599 23.3988 25.0725 23.5891 24.641 24.2539C24.2088 24.9194 24.3984 25.809 25.0639 26.2405C26.8753 27.415 27.9996 29.7045 27.9996 32.2152C27.9996 34.7258 26.8753 37.0161 25.0639 38.1899C24.3991 38.6214 24.2096 39.5109 24.641 40.1764C24.916 40.6 25.3762 40.8305 25.8472 40.8305C26.115 40.8305 26.3856 40.7558 26.6276 40.5993C29.2445 38.9014 30.8714 35.6886 30.8714 32.2152C30.8714 28.7425 29.2452 25.5297 26.6276 23.831Z" fill="white"/>
<path d="M31.015 20.2973C30.381 19.8206 29.48 19.9506 29.0047 20.5838C28.5288 21.2177 28.6573 22.118 29.2912 22.594C32.5772 25.0594 34.4611 28.5659 34.4611 32.2152C34.4611 35.8652 32.5772 39.3716 29.2919 41.8356C28.6573 42.3109 28.5288 43.2112 29.0055 43.8458C29.2876 44.2213 29.7184 44.4202 30.1556 44.4202C30.455 44.4202 30.7572 44.3269 31.0157 44.133C35.0304 41.1213 37.3329 36.777 37.3329 32.2152C37.3329 27.6534 35.0304 23.3098 31.015 20.2973Z" fill="white"/>
<path d="M37.6806 16.8942C37.1508 16.3062 36.2411 16.2589 35.6531 16.7909C35.0644 17.3221 35.0178 18.2296 35.549 18.819C39.0648 22.7125 40.9228 27.3453 40.9228 32.2151C40.9228 37.085 39.0648 41.7171 35.5498 45.612C35.0185 46.2 35.0644 47.1082 35.6539 47.6394C35.9274 47.8878 36.2713 48.0099 36.6145 48.0099C37.0072 48.0099 37.3978 47.8498 37.6806 47.536C41.681 43.1056 43.7946 37.8079 43.7946 32.2151C43.7946 26.6224 41.681 21.3247 37.6806 16.8942Z" fill="white"/>
</svg>
