<svg width="72" height="72" viewBox="0 0 72 72" fill="none" xmlns="http://www.w3.org/2000/svg">
<path d="M35.6364 23.1277C29.4181 23.1277 24.3516 28.1862 24.3516 34.395C24.3516 40.6038 29.4181 45.6623 35.6364 45.6623C41.8548 45.6623 46.9212 40.6038 46.9212 34.395C46.9212 28.1862 41.8548 23.1277 35.6364 23.1277ZM35.6364 25.4998C40.5708 25.4998 44.5454 29.4682 44.5454 34.395C44.5454 39.3218 40.5708 43.2903 35.6364 43.2903C30.7021 43.2903 26.7273 39.3218 26.7273 34.395C26.7273 29.4682 30.7021 25.4998 35.6364 25.4998Z" fill="white"/>
<path d="M32.0726 49.8135V53.3716H31.4786C31.1636 53.3716 30.8615 53.4966 30.6388 53.719C30.416 53.9415 30.2908 54.2431 30.2908 54.5576V65.8249C30.2908 68.7585 32.6981 71.1621 35.6362 71.1621C38.5744 71.1621 40.9817 68.7585 40.9817 65.8249V54.5576C40.9816 54.2431 40.8564 53.9415 40.6336 53.719C40.4109 53.4966 40.1088 53.3716 39.7938 53.3716H39.1998V49.8135H36.8241V54.5576C36.8241 54.8722 36.9493 55.1738 37.1721 55.3962C37.3949 55.6186 37.6969 55.7436 38.012 55.7436H38.6059V65.8249C38.6059 67.4766 37.2904 68.79 35.6362 68.79C33.9821 68.79 32.6665 67.4766 32.6665 65.8249V55.7436H33.2605C33.5755 55.7436 33.8776 55.6186 34.1003 55.3962C34.3231 55.1738 34.4483 54.8722 34.4483 54.5576V49.8135H32.0726Z" fill="white"/>
<path d="M35.6361 17.7904C26.4656 17.7904 19.0059 25.2386 19.0059 34.3949C19.0059 43.5512 26.4656 50.9993 35.6361 50.9993C44.8068 50.9993 52.2664 43.5512 52.2664 34.3949C52.2664 25.2386 44.8068 17.7904 35.6361 17.7904ZM35.6361 20.1625C43.5228 20.1625 49.8906 26.5204 49.8906 34.3949C49.8906 42.2693 43.5228 48.6273 35.6361 48.6273C27.7496 48.6273 21.3816 42.2693 21.3816 34.3949C21.3816 26.5204 27.7496 20.1625 35.6361 20.1625Z" fill="white"/>
<path d="M14.287 33.2089C14.1296 33.2066 13.9731 33.2357 13.827 33.2943C13.6809 33.3529 13.5482 33.4399 13.4361 33.5502C13.324 33.6606 13.2353 33.7921 13.1745 33.9371C13.1137 34.0821 13.0823 34.2377 13.0823 34.3949C13.0823 34.5521 13.1137 34.7077 13.1745 34.8527C13.2353 34.9977 13.324 35.1292 13.4361 35.2395C13.5482 35.3499 13.6809 35.4369 13.827 35.4955C13.9731 35.5541 14.1296 35.5831 14.287 35.5809H15.4424C15.5998 35.5831 15.7562 35.5541 15.9023 35.4955C16.0484 35.4369 16.1812 35.3499 16.2933 35.2395C16.4053 35.1292 16.4941 34.9977 16.5548 34.8527C16.6156 34.7077 16.6471 34.5521 16.6471 34.3949C16.6471 34.2377 16.6156 34.0821 16.5548 33.9371C16.4941 33.7921 16.4053 33.6606 16.2933 33.5502C16.1812 33.4399 16.0484 33.3529 15.9023 33.2943C15.7562 33.2357 15.5998 33.2066 15.4424 33.2089H14.287Z" fill="white"/>
<path d="M17.1799 22.5462C16.913 22.5359 16.6504 22.6157 16.4345 22.7726C16.2187 22.9295 16.0624 23.1544 15.9902 23.4111C15.9181 23.6678 15.9346 23.9413 16.0372 24.1874C16.1398 24.4335 16.3225 24.6379 16.5558 24.7677L17.5557 25.3422C17.6909 25.4274 17.8421 25.4845 18 25.5101C18.1579 25.5357 18.3192 25.5291 18.4745 25.4908C18.6297 25.4526 18.7758 25.3835 18.9037 25.2876C19.0315 25.1917 19.1386 25.071 19.2186 24.9327C19.2986 24.7945 19.35 24.6415 19.3694 24.483C19.3888 24.3245 19.3755 24.1638 19.3311 24.0103C19.2868 23.8569 19.2123 23.714 19.1113 23.5902C19.0103 23.4664 18.8851 23.3642 18.7436 23.2898L17.7436 22.713C17.5727 22.6111 17.3788 22.5537 17.1799 22.5462Z" fill="white"/>
<path d="M18.203 43.2786C17.9756 43.2712 17.751 43.329 17.5557 43.4454L16.5557 44.0222C16.4206 44.1 16.3021 44.2038 16.2071 44.3274C16.1121 44.4509 16.0422 44.592 16.0018 44.7425C15.9614 44.8929 15.9513 45.0499 15.9716 45.2043C15.992 45.3587 16.0427 45.5076 16.1207 45.6425C16.1987 45.7775 16.3026 45.8958 16.4264 45.9906C16.5501 46.0854 16.6915 46.155 16.8422 46.1953C16.9929 46.2356 17.1498 46.2459 17.3045 46.2256C17.4592 46.2053 17.6085 46.1548 17.7436 46.0769L18.7435 45.5001C18.9704 45.3738 19.1493 45.1767 19.2534 44.9391C19.3574 44.7014 19.3808 44.4361 19.3195 44.184C19.2582 43.932 19.1157 43.7069 18.9141 43.5434C18.7124 43.3798 18.4626 43.2869 18.203 43.2786Z" fill="white"/>
<path d="M55.8297 33.2089C55.6723 33.2066 55.5158 33.2357 55.3697 33.2943C55.2237 33.3529 55.0909 33.4399 54.9788 33.5502C54.8667 33.6606 54.7774 33.7921 54.7166 33.9371C54.6559 34.0821 54.625 34.2377 54.625 34.3949C54.625 34.5521 54.6559 34.7077 54.7166 34.8527C54.7774 34.9977 54.8667 35.1292 54.9788 35.2395C55.0909 35.3499 55.2237 35.4369 55.3697 35.4955C55.5158 35.5541 55.6723 35.5831 55.8297 35.5809H56.9851C57.1425 35.5831 57.299 35.5541 57.445 35.4955C57.5911 35.4369 57.7239 35.3499 57.836 35.2395C57.9481 35.1292 58.0368 34.9977 58.0976 34.8527C58.1583 34.7077 58.1898 34.5521 58.1898 34.3949C58.1898 34.2377 58.1583 34.0821 58.0976 33.9371C58.0368 33.7921 57.9481 33.6606 57.836 33.5502C57.7239 33.4399 57.5911 33.3529 57.445 33.2943C57.299 33.2357 57.1425 33.2066 56.9851 33.2089H55.8297Z" fill="white"/>
<path d="M54.1741 22.5461C53.9476 22.5391 53.7238 22.597 53.5291 22.7129L52.5292 23.2897C52.3876 23.3641 52.2624 23.4663 52.1614 23.5901C52.0604 23.7139 51.9854 23.8568 51.941 24.0103C51.8967 24.1637 51.8839 24.3244 51.9033 24.483C51.9227 24.6415 51.9741 24.7944 52.0541 24.9326C52.1341 25.0709 52.2412 25.1916 52.3691 25.2875C52.4969 25.3834 52.643 25.4525 52.7983 25.4908C52.9536 25.529 53.1149 25.5356 53.2727 25.51C53.4306 25.4845 53.5818 25.4273 53.717 25.3421L54.7147 24.7676C54.9415 24.6413 55.1205 24.4441 55.2245 24.2064C55.3285 23.9688 55.352 23.7037 55.2906 23.4517C55.2293 23.1997 55.0868 22.9746 54.8852 22.811C54.6836 22.6475 54.4337 22.5544 54.1741 22.5461Z" fill="white"/>
<path d="M53.1527 43.2786C52.8858 43.2683 52.6232 43.348 52.4073 43.5049C52.1914 43.6618 52.0346 43.8868 51.9625 44.1435C51.8903 44.4002 51.9074 44.6737 52.01 44.9198C52.1127 45.166 52.2952 45.3704 52.5286 45.5001L53.5285 46.0769C53.6638 46.1601 53.8145 46.2153 53.9716 46.2393C54.1287 46.2633 54.2891 46.2556 54.4432 46.2166C54.5972 46.1776 54.7417 46.1081 54.8683 46.0123C54.995 45.9165 55.1011 45.7964 55.1804 45.6589C55.2597 45.5214 55.3106 45.3695 55.33 45.212C55.3495 45.0545 55.3376 44.8946 55.2941 44.742C55.2506 44.5894 55.1767 44.4471 55.0771 44.3235C54.9776 44.1998 54.854 44.0974 54.7141 44.0222L53.7164 43.4454C53.5455 43.3435 53.3516 43.2862 53.1527 43.2786Z" fill="white"/>
<path d="M5.34544 0C2.40735 0 0 2.40362 0 5.33715V10.6743C3.14987e-05 10.9888 0.125247 11.2904 0.34801 11.5129C0.570773 11.7353 0.872841 11.8603 1.18788 11.8603H8.31513V58.7087C8.31513 61.6422 10.7225 64.0458 13.6606 64.0458H27.3211V61.6737H13.6606C12.0065 61.6737 10.6909 60.3603 10.6909 58.7087V5.33715C10.6909 2.40362 8.28365 0 5.34544 0ZM5.34544 2.37207C6.99968 2.37207 8.31513 3.68548 8.31513 5.33715V9.48827H2.37575V5.33715C2.37575 3.68548 3.69132 2.37207 5.34544 2.37207Z" fill="white"/>
<path d="M5.93945 0V2.37207H57.612C59.2663 2.37207 60.5817 3.68548 60.5817 5.33715V58.7087C60.5817 61.6422 62.9891 64.0458 65.9272 64.0458C68.8654 64.0458 71.2726 61.6422 71.2726 58.7087V53.3715C71.2726 53.057 71.1474 52.7554 70.9246 52.533C70.7018 52.3105 70.3998 52.1855 70.0847 52.1855H62.9575V5.33715C62.9575 2.40362 60.5502 0 57.612 0H5.93945ZM62.9575 54.5575H68.8969V58.7087C68.8969 60.3603 67.5814 61.6737 65.9272 61.6737C64.273 61.6737 62.9575 60.3603 62.9575 58.7087V54.5575Z" fill="white"/>
<path d="M43.9517 61.6737V64.0458H65.3334V61.6737H43.9517Z" fill="white"/>
<path d="M27.321 7.11609V9.48816H43.9513V7.11609H27.321Z" fill="white"/>
</svg>
