<svg width="78" height="78" viewBox="0 0 78 78" fill="none" xmlns="http://www.w3.org/2000/svg">
<g filter="url(#filter0_d_180_348)">
<circle cx="24" cy="24" r="24" transform="matrix(-1 0 0 1 63 11)" fill="white"/>
</g>
<path d="M37.6391 42.7585C37.7901 42.9077 37.9941 42.9908 38.2063 42.9895C38.4185 42.9882 38.6216 42.9027 38.7707 42.7517C38.9199 42.6008 39.003 42.3967 39.0017 42.1845C39.0004 41.9723 38.9149 41.7693 38.7639 41.6201L32.8631 35.7889L47.0031 35.7889C47.2153 35.7889 47.4188 35.7046 47.5688 35.5546C47.7188 35.4046 47.8031 35.2011 47.8031 34.9889C47.8031 34.7768 47.7188 34.5733 47.5688 34.4232C47.4188 34.2732 47.2153 34.1889 47.0031 34.1889L32.8647 34.1889L38.7639 28.3601C38.9109 28.2102 38.9931 28.0086 38.9927 27.7986C38.9923 27.5887 38.9095 27.3873 38.762 27.2379C38.6145 27.0886 38.4142 27.0031 38.2043 27.0001C37.9944 26.9971 37.7917 27.0767 37.6399 27.2217L30.4967 34.2785C30.4026 34.3715 30.3279 34.4823 30.2769 34.6044C30.226 34.7264 30.1997 34.8574 30.1997 34.9897C30.1997 35.122 30.226 35.253 30.2769 35.3751C30.3279 35.4972 30.4026 35.6079 30.4967 35.7009L37.6399 42.7585L37.6391 42.7585Z" fill="black"/>
<defs>
<filter id="filter0_d_180_348" x="0" y="0" width="78" height="78" filterUnits="userSpaceOnUse" color-interpolation-filters="sRGB">
<feFlood flood-opacity="0" result="BackgroundImageFix"/>
<feColorMatrix in="SourceAlpha" type="matrix" values="0 0 0 0 0 0 0 0 0 0 0 0 0 0 0 0 0 0 127 0" result="hardAlpha"/>
<feOffset dy="4"/>
<feGaussianBlur stdDeviation="7.5"/>
<feComposite in2="hardAlpha" operator="out"/>
<feColorMatrix type="matrix" values="0 0 0 0 0 0 0 0 0 0 0 0 0 0 0 0 0 0 0.15 0"/>
<feBlend mode="normal" in2="BackgroundImageFix" result="effect1_dropShadow_180_348"/>
<feBlend mode="normal" in="SourceGraphic" in2="effect1_dropShadow_180_348" result="shape"/>
</filter>
</defs>
</svg>
