<svg width="25" height="25" viewBox="0 0 25 25" fill="none" xmlns="http://www.w3.org/2000/svg">
<path d="M12.0306 24.0611C5.38625 24.0611 0 18.6749 0 12.0306C0 5.38631 5.38625 0 12.0306 0C18.6749 0 24.0612 5.38625 24.0612 12.0305C24.0612 18.6748 18.6749 24.0611 12.0306 24.0611Z" fill="#555555"/>
<path d="M9.06508 9.34863H6.5752V17.3923H9.06508V9.34863Z" fill="white"/>
<path d="M7.80821 8.29529C8.62157 8.29529 9.28054 7.63018 9.28054 6.81069C9.28054 5.9912 8.62157 5.32666 7.80821 5.32666C6.99479 5.32666 6.33594 5.9912 6.33594 6.81069C6.33594 7.63018 6.99479 8.29529 7.80821 8.29529Z" fill="white"/>
<path d="M13.0452 13.1699C13.0452 12.0392 13.5656 11.3654 14.5622 11.3654C15.4777 11.3654 15.9177 12.012 15.9177 13.1699V17.3923H18.3958V12.2994C18.3958 10.1448 17.1746 9.10303 15.4692 9.10303C13.7631 9.10303 13.0452 10.4321 13.0452 10.4321V9.34863H10.6567V17.3923H13.0452V13.1699Z" fill="white"/>
</svg>
