<svg width="55" height="43" viewBox="0 0 55 43" fill="none" xmlns="http://www.w3.org/2000/svg">
<path d="M31.2727 15.6364C31.2727 17.7864 29.5136 19.5455 27.3636 19.5455C25.2136 19.5455 23.4545 17.7864 23.4545 15.6364C23.4545 13.4864 25.2136 11.7273 27.3636 11.7273C29.5136 11.7273 31.2727 13.4864 31.2727 15.6364ZM15.6364 11.7273C13.4864 11.7273 11.7273 13.4864 11.7273 15.6364C11.7273 17.7864 13.4864 19.5455 15.6364 19.5455C17.7864 19.5455 19.5455 17.7864 19.5455 15.6364C19.5455 13.4864 17.7864 11.7273 15.6364 11.7273ZM39.0909 11.7273C36.9409 11.7273 35.1818 13.4864 35.1818 15.6364C35.1818 17.7864 36.9409 19.5455 39.0909 19.5455C41.2409 19.5455 43 17.7864 43 15.6364C43 13.4864 41.2605 11.7273 39.0909 11.7273ZM54.7273 5.86364V25.4091C54.7273 27.7741 53.1636 31.2727 48.8636 31.2727H38.055L28.8686 42.2964C28.4973 42.7459 27.95 43 27.3636 43C26.7773 43 26.23 42.7459 25.8586 42.2964L16.6723 31.2727H5.86364C3.49864 31.2727 0 29.7091 0 25.4091V5.86364C0 3.49864 1.56364 0 5.86364 0H48.8636C51.2286 0 54.7273 1.56364 54.7273 5.86364ZM50.8182 5.86364C50.8182 4.28045 49.7432 3.92864 48.8441 3.90909H5.86364C4.28045 3.90909 3.92864 4.98409 3.90909 5.88318V25.4091C3.90909 26.9923 4.98409 27.3441 5.88318 27.3636H17.5909C18.1773 27.3636 18.7245 27.6177 19.0959 28.0673L27.3636 37.9964L35.6314 28.0673C36.0027 27.6177 36.55 27.3636 37.1364 27.3636H48.8636C50.4468 27.3636 50.7986 26.2886 50.8182 25.3895V5.86364Z" fill="white"/>
</svg>
