<svg width="32" height="54" viewBox="0 0 32 54" fill="none" xmlns="http://www.w3.org/2000/svg">
<path d="M32 28.4445C32 27.973 31.8127 27.5208 31.4793 27.1874C31.1459 26.854 30.6937 26.6667 30.2222 26.6667C29.7507 26.6667 29.2985 26.854 28.9651 27.1874C28.6317 27.5208 28.4444 27.973 28.4444 28.4445C28.4444 31.745 27.1333 34.9103 24.7996 37.2441C22.4658 39.5779 19.3005 40.889 16 40.889C12.6995 40.889 9.53424 39.5779 7.20045 37.2441C4.86666 34.9103 3.55556 31.745 3.55556 28.4445C3.55556 27.973 3.36825 27.5208 3.03486 27.1874C2.70146 26.854 2.24927 26.6667 1.77778 26.6667C1.30628 26.6667 0.854097 26.854 0.520699 27.1874C0.187301 27.5208 0 27.973 0 28.4445C0.00186751 32.3789 1.45325 36.1746 4.07683 39.1064C6.70042 42.0383 10.3123 43.9007 14.2222 44.3379V49.7779H10.6667C10.1952 49.7779 9.74299 49.9652 9.40959 50.2986C9.07619 50.632 8.88889 51.0841 8.88889 51.5556C8.88889 52.0271 9.07619 52.4793 9.40959 52.8127C9.74299 53.1461 10.1952 53.3334 10.6667 53.3334H21.3333C21.8048 53.3334 22.257 53.1461 22.5904 52.8127C22.9238 52.4793 23.1111 52.0271 23.1111 51.5556C23.1111 51.0841 22.9238 50.632 22.5904 50.2986C22.257 49.9652 21.8048 49.7779 21.3333 49.7779H17.7778V44.3379C21.6877 43.9007 25.2996 42.0383 27.9232 39.1064C30.5467 36.1746 31.9981 32.3789 32 28.4445Z" fill="white"/>
<path d="M16.0002 37.3333C18.3577 37.3333 20.6186 36.3968 22.2856 34.7298C23.9526 33.0628 24.8891 30.8019 24.8891 28.4444V8.88889C24.8891 6.53141 23.9526 4.27048 22.2856 2.6035C20.6186 0.936505 18.3577 0 16.0002 0C13.6427 0 11.3818 0.936505 9.71482 2.6035C8.04783 4.27048 7.11133 6.53141 7.11133 8.88889V28.4444C7.11133 30.8019 8.04783 33.0628 9.71482 34.7298C11.3818 36.3968 13.6427 37.3333 16.0002 37.3333ZM10.6669 8.88889C10.6669 7.4744 11.2288 6.11785 12.229 5.11765C13.2292 4.11746 14.5857 3.55556 16.0002 3.55556C17.4147 3.55556 18.7713 4.11746 19.7715 5.11765C20.7716 6.11785 21.3336 7.4744 21.3336 8.88889V28.4444C21.3336 29.8589 20.7716 31.2155 19.7715 32.2157C18.7713 33.2159 17.4147 33.7778 16.0002 33.7778C14.5857 33.7778 13.2292 33.2159 12.229 32.2157C11.2288 31.2155 10.6669 29.8589 10.6669 28.4444V8.88889Z" fill="white"/>
</svg>
