<svg width="78" height="78" viewBox="0 0 78 78" fill="none" xmlns="http://www.w3.org/2000/svg">
<g filter="url(#filter0_d_180_344)">
<circle cx="39" cy="35" r="24" fill="white"/>
</g>
<path d="M40.3608 42.7585C40.2098 42.9077 40.0058 42.9908 39.7936 42.9895C39.5813 42.9882 39.3783 42.9027 39.2292 42.7517C39.08 42.6008 38.9969 42.3967 38.9982 42.1845C38.9995 41.9723 39.085 41.7693 39.236 41.6201L45.1368 35.7889L30.9968 35.7889C30.7846 35.7889 30.5811 35.7046 30.4311 35.5546C30.281 35.4046 30.1968 35.2011 30.1968 34.9889C30.1968 34.7768 30.281 34.5733 30.4311 34.4232C30.5811 34.2732 30.7846 34.1889 30.9968 34.1889L45.1352 34.1889L39.236 28.3601C39.089 28.2102 39.0068 28.0086 39.0072 27.7986C39.0075 27.5887 39.0904 27.3873 39.2379 27.2379C39.3854 27.0886 39.5857 27.0031 39.7956 27.0001C40.0055 26.9971 40.2082 27.0767 40.36 27.2217L47.5032 34.2785C47.5973 34.3715 47.672 34.4823 47.7229 34.6044C47.7739 34.7264 47.8002 34.8574 47.8002 34.9897C47.8002 35.122 47.7739 35.253 47.7229 35.3751C47.672 35.4972 47.5973 35.6079 47.5032 35.7009L40.36 42.7585L40.3608 42.7585Z" fill="black"/>
<defs>
<filter id="filter0_d_180_344" x="0" y="0" width="78" height="78" filterUnits="userSpaceOnUse" color-interpolation-filters="sRGB">
<feFlood flood-opacity="0" result="BackgroundImageFix"/>
<feColorMatrix in="SourceAlpha" type="matrix" values="0 0 0 0 0 0 0 0 0 0 0 0 0 0 0 0 0 0 127 0" result="hardAlpha"/>
<feOffset dy="4"/>
<feGaussianBlur stdDeviation="7.5"/>
<feComposite in2="hardAlpha" operator="out"/>
<feColorMatrix type="matrix" values="0 0 0 0 0 0 0 0 0 0 0 0 0 0 0 0 0 0 0.15 0"/>
<feBlend mode="normal" in2="BackgroundImageFix" result="effect1_dropShadow_180_344"/>
<feBlend mode="normal" in="SourceGraphic" in2="effect1_dropShadow_180_344" result="shape"/>
</filter>
</defs>
</svg>
