<svg width="54" height="46" viewBox="0 0 54 46" fill="none" xmlns="http://www.w3.org/2000/svg">
<path d="M20.7693 41.5384C20.7693 42.6859 21.6987 43.6153 22.8462 43.6153H49.8462C50.9937 43.6153 51.9231 42.6859 51.9231 41.5384V4.15384C51.9231 3.00634 50.9937 2.07692 49.8462 2.07692H22.8462C21.6987 2.07692 20.7693 3.00634 20.7693 4.15384V11.5529H18.6924V4.15384C18.6924 1.86923 20.5616 0 22.8462 0H49.8462C52.1308 0 54 1.86923 54 4.15384V41.5384C54 43.823 52.1308 45.6922 49.8462 45.6922H22.8462C20.5616 45.6922 18.6924 43.823 18.6924 41.5384V34.1394H20.7693V41.5384Z" fill="white"/>
<path d="M22.3271 7.26893C22.3271 6.69778 22.7945 6.23047 23.3656 6.23047H49.3271C49.8982 6.23047 50.3656 6.69778 50.3656 7.26893C50.3656 7.84008 49.8982 8.30739 49.3271 8.30739H23.3656C22.7945 8.30739 22.3271 7.84008 22.3271 7.26893Z" fill="white"/>
<path d="M49.3264 13.4998H31.1533V11.4229H49.3264C49.8975 11.4229 50.3648 11.8902 50.3648 12.4613C50.3648 13.0325 49.8975 13.4998 49.3264 13.4998Z" fill="white"/>
<path d="M49.3276 18.6922H34.2803V16.6152H49.3276C49.8987 16.6152 50.366 17.0825 50.366 17.6537C50.366 18.2248 49.8987 18.6922 49.3276 18.6922Z" fill="white"/>
<path d="M49.3271 23.8845H35.8271V21.8076H49.3271C49.8983 21.8076 50.3656 22.2749 50.3656 22.8461C50.3656 23.4172 49.8983 23.8845 49.3271 23.8845Z" fill="white"/>
<path d="M49.3276 29.0767H34.2803V26.9998H49.3276C49.8987 26.9998 50.366 27.4671 50.366 28.0382C50.366 28.6094 49.8987 29.0767 49.3276 29.0767Z" fill="white"/>
<path d="M49.3264 34.2691H31.1533V32.1921H49.3264C49.8975 32.1921 50.3648 32.6594 50.3648 33.2306C50.3648 33.8018 49.8975 34.2691 49.3264 34.2691Z" fill="white"/>
<path d="M49.3271 39.4612H23.3656C22.7945 39.4612 22.3271 38.9939 22.3271 38.4227C22.3271 37.8516 22.7945 37.3843 23.3656 37.3843H49.3271C49.8982 37.3843 50.3656 37.8516 50.3656 38.4227C50.3656 38.9939 49.8982 39.4612 49.3271 39.4612Z" fill="white"/>
<path d="M4.15384 18.6924H0V27.0001H4.15384V18.6924Z" fill="white"/>
<path d="M5.19238 27L16.6154 33.75V11.9424L5.19238 18.7547V27Z" fill="white"/>
<path d="M19.2577 16.7825C18.7748 16.47 18.1331 16.6076 17.821 17.0884C17.5084 17.5697 17.6455 18.213 18.1268 18.5251C19.4368 19.3745 20.25 21.0304 20.25 22.8461C20.25 24.6619 19.4368 26.3182 18.1268 27.1671C17.646 27.4792 17.5089 28.1225 17.821 28.6038C18.0199 28.9102 18.3527 29.0769 18.6933 29.0769C18.887 29.0769 19.0827 29.0229 19.2577 28.9097C21.1503 27.6817 22.3269 25.3581 22.3269 22.8461C22.3269 20.3346 21.1508 18.011 19.2577 16.7825Z" fill="white"/>
<path d="M22.4303 14.227C21.9718 13.8822 21.3202 13.9762 20.9765 14.4342C20.6322 14.8927 20.7251 15.5438 21.1836 15.888C23.5601 17.6711 24.9226 20.207 24.9226 22.8462C24.9226 25.486 23.5601 28.0219 21.1841 29.8039C20.7251 30.1476 20.6322 30.7987 20.977 31.2577C21.181 31.5293 21.4926 31.6731 21.8088 31.6731C22.0253 31.6731 22.2439 31.6056 22.4308 31.4654C25.3343 29.2873 26.9995 26.1454 26.9995 22.8462C26.9995 19.547 25.3343 16.4057 22.4303 14.227Z" fill="white"/>
<path d="M27.2515 11.7656C26.8683 11.3404 26.2104 11.3061 25.7852 11.6908C25.3594 12.0751 25.3256 12.7314 25.7099 13.1577C28.2525 15.9734 29.5963 19.324 29.5963 22.846C29.5963 26.3679 28.2525 29.718 25.7104 32.5348C25.3262 32.96 25.3594 33.6169 25.7857 34.0011C25.9835 34.1808 26.2322 34.269 26.4804 34.269C26.7644 34.269 27.0469 34.1532 27.2515 33.9263C30.1446 30.7222 31.6732 26.8908 31.6732 22.846C31.6732 18.8012 30.1446 14.9698 27.2515 11.7656Z" fill="white"/>
</svg>
