<svg width="116" height="40" viewBox="0 0 116 40" fill="none" xmlns="http://www.w3.org/2000/svg">
<path d="M26.3398 8.71973H23.3604V39.9991H26.3398V8.71973Z" fill="#ABABAB"/>
<path d="M34.4912 1.15479H31.5117V39.9991H34.4912V1.15479Z" fill="#ABABAB"/>
<path d="M42.6415 10.1572H39.6621V39.9995H42.6415V10.1572Z" fill="#ABABAB"/>
<path d="M50.7929 15.6904H47.8135V39.9995H50.7929V15.6904Z" fill="#ABABAB"/>
<path d="M58.9443 4.63135H55.9648V40.0002H58.9443V4.63135Z" fill="#ABABAB"/>
<path d="M67.0947 10.1572H64.1152V39.9995H67.0947V10.1572Z" fill="#ABABAB"/>
<path d="M75.246 0H72.2666V39.9994H75.246V0Z" fill="#ABABAB"/>
<path d="M83.3974 3.16846H80.418V39.9997H83.3974V3.16846Z" fill="#ABABAB"/>
<path d="M91.5478 6.05176H88.5684V39.9996H91.5478V6.05176Z" fill="#ABABAB"/>
<path d="M99.6982 14.4985H96.7188V39.9996H99.6982V14.4985Z" fill="#ABABAB"/>
<path d="M107.85 19.9995H104.87V39.9992H107.85V19.9995Z" fill="#ABABAB"/>
<path d="M116 24.3594H113.021V39.9991H116V24.3594Z" fill="#ABABAB"/>
<path d="M16.3018 39.9985H19.2812V25.0774H16.3018V39.9985Z" fill="#ABABAB"/>
<path d="M8.15143 39.9985H11.1309L11.1309 27.844H8.15143L8.15143 39.9985Z" fill="#ABABAB"/>
<path d="M6.00815e-05 39.9985H2.97949L2.97949 33.9213H6.00815e-05L6.00815e-05 39.9985Z" fill="#ABABAB"/>
</svg>
