<svg width="25" height="25" viewBox="0 0 25 25" fill="none" xmlns="http://www.w3.org/2000/svg">
<path d="M12.0307 0H12.0305C5.38625 0 0 5.38625 0 12.0305V12.0306C0 18.6749 5.38625 24.0611 12.0305 24.0611H12.0307C18.6749 24.0611 24.0612 18.6749 24.0612 12.0306V12.0305C24.0612 5.38625 18.6749 0 12.0307 0Z" fill="#555555"/>
<path d="M10.1974 19.3025H13.126V11.9689H15.1692L15.3871 9.51337H13.126V8.11488C13.126 7.53599 13.2423 7.30721 13.8021 7.30721H15.3871V4.75879H13.3592C11.18 4.75879 10.1974 5.71868 10.1974 7.55565V9.51337H8.67407V11.9996H10.1974V19.3025Z" fill="white"/>
</svg>
