<svg width="70" height="73" viewBox="0 0 70 73" fill="none" xmlns="http://www.w3.org/2000/svg">
<g clip-path="url(#clip0_0_444)">
<path d="M55.2495 42.8452C54.775 42.8452 54.3905 42.4604 54.3905 41.9862V29.9962C54.3905 26.6917 51.7025 24.0036 48.3981 24.0036H42.6804L39.1744 28.0362C39.0113 28.2238 38.7748 28.3315 38.5262 28.3315H31.4691C31.2205 28.3315 30.984 28.2238 30.8209 28.0362L27.3152 24.0036H22.1683C18.5493 24.0036 15.6048 26.9479 15.6048 30.5669V41.9862C15.6048 42.4604 15.2203 42.8452 14.7457 42.8452C14.2712 42.8452 13.8867 42.4604 13.8867 41.9862V30.5669C13.8867 26.0005 17.6019 22.2856 22.1683 22.2856H27.7067C27.9553 22.2856 28.1918 22.3932 28.3549 22.5812L31.8606 26.6134H38.1347L41.6408 22.5809C41.8038 22.3932 42.0403 22.2856 42.2889 22.2856H48.3981C52.6495 22.2856 56.1086 25.7446 56.1086 29.9962V41.9862C56.1086 42.4604 55.7241 42.8452 55.2495 42.8452Z" fill="#262626"/>
<path d="M37.0475 33.7712H32.9523C32.565 33.7712 32.2255 33.5119 32.1234 33.1381L30.6403 27.6984C30.5156 27.2406 30.7854 26.7683 31.2432 26.6436C31.6984 26.5184 32.1726 26.7882 32.298 27.2465L33.6086 32.0531H36.3912L37.7015 27.2465C37.8265 26.7888 38.2988 26.5186 38.7563 26.6436C39.2141 26.7683 39.4839 27.2406 39.3592 27.6984L37.8763 33.1381C37.7743 33.5119 37.4348 33.7712 37.0475 33.7712Z" fill="#262626"/>
<path d="M31.4701 42.8452C31.424 42.8452 31.3773 42.8418 31.3303 42.834C30.8622 42.7574 30.5449 42.3156 30.6212 41.8475L32.1043 32.7734C32.1807 32.3054 32.6225 31.9874 33.0909 32.0643C33.5589 32.1409 33.8764 32.5825 33.8 33.0508L32.3169 42.1249C32.2481 42.546 31.8835 42.8452 31.4701 42.8452Z" fill="#262626"/>
<path d="M38.5294 42.8452C38.1161 42.8452 37.7515 42.546 37.6827 42.1249L36.1998 33.0506C36.1235 32.5825 36.4409 32.1409 36.9092 32.0643C37.3756 31.9896 37.8191 32.3054 37.8955 32.7737L39.3784 41.8475C39.4547 42.3156 39.1374 42.7574 38.669 42.8341C38.6223 42.8418 38.5756 42.8452 38.5294 42.8452Z" fill="#262626"/>
<path d="M34.9977 20.9598C29.8634 20.9598 25.6865 16.2587 25.6865 10.48C25.6865 4.70147 29.8634 0 34.9977 0C40.132 0 44.3088 4.70147 44.3088 10.48C44.3088 16.2587 40.132 20.9598 34.9977 20.9598ZM34.9977 1.71806C30.8108 1.71806 27.4046 5.64857 27.4046 10.48C27.4046 15.3113 30.8108 19.2418 34.9977 19.2418C39.1847 19.2418 42.5908 15.3113 42.5908 10.48C42.5908 5.64857 39.1847 1.71806 34.9977 1.71806Z" fill="#262626"/>
<path d="M69.141 47.8847H0.859029C0.384514 47.8847 0 47.5 0 47.0257C0 46.5515 0.384514 46.1667 0.859029 46.1667H69.141C69.6155 46.1667 70 46.5515 70 47.0257C70 47.5 69.6155 47.8847 69.141 47.8847Z" fill="#262626"/>
<path d="M8.21694 72.5321C7.74242 72.5321 7.35791 72.1473 7.35791 71.6731V47.0257C7.35791 46.5515 7.74242 46.1667 8.21694 46.1667C8.69146 46.1667 9.07597 46.5515 9.07597 47.0257V71.6731C9.07597 72.1473 8.69146 72.5321 8.21694 72.5321Z" fill="#262626"/>
<path d="M61.7833 72.5321C61.3088 72.5321 60.9243 72.1473 60.9243 71.6731V47.0257C60.9243 46.5515 61.3088 46.1667 61.7833 46.1667C62.2579 46.1667 62.6424 46.5515 62.6424 47.0257V71.6731C62.6424 72.1473 62.2579 72.5321 61.7833 72.5321Z" fill="#262626"/>
<path d="M45.897 62.8199H24.1028C22.5128 62.8199 21.2192 61.5263 21.2192 59.9363V56.6445C21.2192 55.0545 22.5128 53.7609 24.1028 53.7609H45.897C47.4871 53.7609 48.7806 55.0545 48.7806 56.6445V59.9363C48.7806 61.5263 47.4871 62.8199 45.897 62.8199ZM24.1028 55.479C23.4602 55.479 22.9373 56.0019 22.9373 56.6445V59.9363C22.9373 60.5789 23.4602 61.1018 24.1028 61.1018H45.897C46.5397 61.1018 47.0625 60.5789 47.0625 59.9363V56.6445C47.0625 56.0019 46.5397 55.479 45.897 55.479H24.1028Z" fill="#262626"/>
</g>
<defs>
<clipPath id="clip0_0_444">
<rect width="70" height="72.5321" fill="white"/>
</clipPath>
</defs>
</svg>
